<?xml version="1.0" encoding="iso-8859-1"?>
<!-- Generator: Adobe Illustrator 16.0.0, SVG Export Plug-In . SVG Version: 6.00 Build 0)  -->
<svg version="1.1" id="Capa_1" xmlns="http://www.w3.org/2000/svg"
	 x="0px" y="0px"
	 width="64px" height="64px" viewBox="0 0 64 64" style="enable-background:new 0 0 64 64;" xml:space="preserve">
<g>
	<g>

		<g id="mail">
			<g>
				<path d="M46,21H18c-1.104,0-2,0.896-2,2v18c0,1.104,0.896,2,2,2h28c1.104,0,2-0.896,2-2V23C48,21.896,47.104,21,46,21z
					 M44.205,23L32,35L19.891,23H44.205z M18,41V24.006l9.589,9.589L20.061,41H18z M22.985,41l6.081-5.927l1.58,1.579
					c0.781,0.781,2.047,0.781,2.829,0l1.531-1.531L41.087,41H22.985z M46,41h-1.939l-7.527-7.405L46,24.128V41z"/>
			</g>
		</g>
	</g>
</g>
</svg>
